<?xml version="1.0" encoding="UTF-8"?>
<svg version="1.1" xmlns="http://www.w3.org/2000/svg" width="762" height="759">
<path d="M0 0 C-0.01715781 1.70594849 -0.01715781 1.70594849 -0.03466225 3.44636059 C-0.30913889 31.14848627 -0.47953351 58.84977225 -0.54146767 86.55321026 C-0.54791337 89.2227303 -0.55450596 91.89224907 -0.56152344 94.56176758 C-0.56325441 95.22526464 -0.56498538 95.8887617 -0.56676881 96.57236473 C-0.59475997 106.63000521 -0.67554566 116.6863515 -0.78515625 126.7434082 C-0.91188974 138.42342177 -0.97505425 150.10177582 -0.96262586 161.78250057 C-0.95824792 167.96546379 -0.9851915 174.14463646 -1.08833694 180.32681847 C-1.18454849 186.1537098 -1.1953555 191.97469363 -1.14233971 197.80207825 C-1.13769484 199.93342099 -1.16352801 202.06509611 -1.22307396 204.19561195 C-1.75031879 215.35296564 -1.75031879 215.35296564 2.7833333 225.12939477 C7.09024616 229.03209264 11.84856111 232.01418417 16.91946244 234.82130587 C19.53641164 236.30389514 21.90405655 238.03685206 24.28125 239.875 C24.98773682 240.39779541 25.69422363 240.92059082 26.42211914 241.45922852 C27.45067017 242.2219104 27.45067017 242.2219104 28.5 243 C37.61639871 249.73697615 46.79942924 256.37865188 56 263 C65.20059705 269.62136704 74.38228143 276.26478215 83.5 283 C89.68815412 287.56984024 95.8908853 292.1180147 102.125 296.625 C102.76759766 297.09035156 103.41019531 297.55570313 104.07226562 298.03515625 C105.45166074 299.0302624 106.8504521 299.99883355 108.26383972 300.94503784 C110.40403657 302.55240842 111.99549284 304.0078353 113.81135559 305.92019653 C127.63278306 319.20764785 146.84476501 316.64154323 164.65742993 316.41865635 C169.46070738 316.37135494 174.26370242 316.39273975 179.06712341 316.40643311 C188.13714067 316.42206054 197.2057742 316.37708172 206.27551264 316.30961108 C218.54949287 316.22187132 230.82340728 316.22920194 243.09764004 316.23083687 C262.39927694 316.23093265 281.69798386 316.10526532 301 316 C301 365.5 301 415 301 466 C249.35390071 466.52393944 249.35390071 466.52393944 227.63476562 466.63476562 C212.6651794 466.71176647 197.69654761 466.80205654 182.7277832 466.98071289 C171.82370407 467.11079341 160.92040258 467.19427533 150.01556903 467.22315043 C144.24767221 467.24001521 138.48199886 467.27929076 132.71481895 467.37449074 C127.27137854 467.46360745 121.83104831 467.48978074 116.38694763 467.47039986 C114.40324729 467.47393811 112.41942861 467.49928463 110.43636513 467.54967117 C95.5189731 467.90968388 86.66500881 464.02927877 75.08224928 454.67849004 C72.3824542 452.50219962 69.60709918 450.43566959 66.82680243 448.36396056 C64.90725727 446.93075473 62.99999667 445.48208021 61.09375 444.03125 C56.66153186 440.70708639 52.08960078 437.60147982 47.5 434.5 C40.86938497 430.01927941 34.42123496 425.37152525 28.05859375 420.51953125 C22.9834697 416.6753518 17.77457601 413.06436035 12.5 409.5 C5.86938497 405.01927941 -0.57876504 400.37152525 -6.94140625 395.51953125 C-12.01653771 391.67534619 -17.22550577 388.06449113 -22.5 384.5 C-29.17205012 379.98915767 -35.67455941 375.31936953 -42.08642578 370.44702148 C-47.47413866 366.36296067 -52.96849275 362.45002337 -58.50439453 358.57006836 C-63.70248968 354.92453568 -68.85990837 351.22681573 -74 347.5 C-79.80552884 343.29295925 -85.635126 339.12390955 -91.5 335 C-98.12407109 330.34225799 -104.6972261 325.61814796 -111.25415039 320.86645508 C-117.10420486 316.63270432 -122.99139499 312.45408405 -128.90429688 308.30859375 C-130.17467865 307.41637809 -131.43824943 306.51436856 -132.69407749 305.60178185 C-135.02567271 303.94064418 -135.02567271 303.94064418 -137.69385433 302.40647316 C-143.03734483 299.03664932 -146.49492191 296.43391976 -148.22450256 290.2071228 C-148.66167622 287.93337868 -149.04193062 285.64820731 -149.37524414 283.35693359 C-149.58904315 282.09559664 -149.80284216 280.83425968 -150.02311993 279.53470039 C-150.7106438 275.33444381 -151.26565868 271.12243403 -151.78515625 266.8984375 C-151.92058476 265.80055373 -151.92058476 265.80055373 -152.0587492 264.68049049 C-153.41286868 253.45032674 -154.30310173 242.20665933 -154.92300081 230.91340923 C-155.01582681 229.22429273 -155.11239851 227.53537781 -155.21275663 225.84669209 C-157.88983174 180.37065759 -151.48687323 144.96162282 -120.64962959 110.13608932 C-107.5764229 95.63998061 -93.68093578 82.07742492 -79.3125 68.875 C-78.51729525 68.14307403 -77.7220905 67.41114805 -76.90278864 66.6570425 C-58.79181758 50.01799745 -40.2669842 33.89261874 -21.12605381 18.44751549 C-20.54313202 17.97644135 -19.96021023 17.50536721 -19.35962415 17.0200181 C-17.81189415 15.7718962 -16.26010286 14.52881504 -14.7079668 13.28617668 C-11.98220591 10.9849775 -9.48495835 8.55736761 -7 6 C-1.11713666 0 -1.11713666 0 0 0 Z " fill="#FFFFFF" transform="translate(180,293)"/>
<path d="M0 0 C-4.31239535 5.15236986 -8.83213437 9.97497911 -13.58872604 14.7173605 C-14.71000592 15.84126993 -14.71000592 15.84126993 -15.85393792 16.98788461 C-18.3583346 19.49693168 -20.86626862 22.00241228 -23.37420654 24.50791931 C-25.18895698 26.32453817 -27.00349111 28.14137313 -28.81782746 29.95840555 C-32.76227822 33.9080008 -36.70858397 37.85573491 -40.65612221 41.80224419 C-46.52598986 47.67058553 -52.39300795 53.54176967 -58.25949435 59.41349096 C-69.34476566 70.50842786 -80.43345946 81.59993995 -91.52327791 92.69033157 C-100.0826683 101.25018146 -108.64125892 109.81083022 -117.19928741 118.3720417 C-119.66240787 120.83605968 -122.12553217 123.3000738 -124.58865762 125.76408678 C-125.20097269 126.37662291 -125.81328777 126.98915903 -126.44415785 127.62025686 C-143.66285198 144.84510362 -160.88264824 162.06884794 -178.10464096 179.29039669 C-179.07833464 180.26406701 -179.07833464 180.26406701 -180.07169891 181.25740743 C-183.36181726 184.54744267 -186.65194357 187.83746994 -189.94207165 191.12749546 C-190.92223777 192.10763166 -190.92223777 192.10763166 -191.92220522 193.10756859 C-193.24362496 194.4289479 -194.56504539 195.75032653 -195.88646649 197.07170447 C-216.46727348 217.65189806 -237.04400979 238.2361541 -257.61767578 258.82348633 C-280.72474498 281.94589823 -303.83517047 305.06494844 -326.9503777 328.17922503 C-329.41225528 330.64102797 -331.8741199 333.10284388 -334.33597565 335.56466866 C-335.24525947 336.47393499 -335.24525947 336.47393499 -336.17291266 337.40157035 C-345.94724567 347.17587253 -355.71836076 356.95338553 -365.48837705 366.73200232 C-375.29471251 376.54679212 -385.10475516 386.35786426 -394.91861477 396.16513073 C-400.7558167 401.99862295 -406.59020362 407.83489847 -412.42066732 413.67512561 C-416.76269626 418.02381381 -421.10987435 422.36731856 -425.45916167 426.70874674 C-427.22657273 428.47460691 -428.99226462 430.24218962 -430.75613818 432.01158332 C-433.13775931 434.40016864 -435.52533887 436.78262683 -437.91463852 439.16352749 C-438.61197706 439.8658342 -439.30931559 440.56814092 -440.0277856 441.29172966 C-440.66001299 441.91920623 -441.29224037 442.54668281 -441.94362617 443.19317383 C-442.48977572 443.7394116 -443.03592527 444.28564937 -443.59862481 444.84843981 C-445 446 -445 446 -447 446 C-448.18166847 423.66184258 -449.05599225 401.32898632 -449.5906086 378.96565437 C-449.84578585 368.57354232 -450.19269598 358.20127173 -450.77197266 347.82177734 C-454.8696029 272.97408819 -454.8696029 272.97408819 -433.99452281 249.20268512 C-423.09409617 237.2586949 -410.33766848 227.08240778 -397 218 C-397.89301656 216.93513145 -398.7895947 215.87324959 -399.6875 214.8125 C-400.23222961 214.16761155 -400.77695923 213.5227231 -401.3381958 212.85829258 C-403.09599497 210.81544134 -403.09599497 210.81544134 -405.77636719 208.57981873 C-408.70088202 205.18684931 -409.1667429 202.0398568 -409.578125 197.72290039 C-409.65721603 196.91113531 -409.73630707 196.09937023 -409.8177948 195.26300621 C-411.05506731 179.60047302 -410.81154177 166.13650585 -400.3657074 153.67342567 C-393.83959844 146.40508313 -386.59574588 139.87540784 -379.25915527 133.44390869 C-375.44382226 130.05542212 -371.74808734 126.54101794 -368.0390625 123.03710938 C-360.80134972 116.23340612 -353.44669105 109.57383281 -346 103 C-342.86261846 104.39080525 -340.74524719 106.01022204 -338.33300781 108.43994141 C-337.63258362 109.14051666 -336.93215942 109.84109192 -336.21051025 110.56289673 C-335.46557312 111.31815643 -334.72063599 112.07341614 -333.953125 112.8515625 C-333.18192322 113.62559418 -332.41072144 114.39962585 -331.6161499 115.19711304 C-329.15603144 117.66841923 -326.70296152 120.14659183 -324.25 122.625 C-322.58249106 124.30254052 -320.91452768 125.97962945 -319.24609375 127.65625 C-315.15877528 131.76561022 -311.07762719 135.88102589 -307 140 C-300.74458382 135.14937176 -295.98935471 129.33097196 -291.06275356 123.18884814 C-275.87730374 104.31371552 -259.88715702 86.14891602 -243.5 68.3125 C-242.79039832 67.53906108 -242.08079663 66.76562217 -241.34969187 65.96874571 C-205.18668057 26.66853613 -172.28926694 -4.23979465 -116.96292114 -7.02314758 C-106.7724568 -7.42503952 -96.62041122 -7.16269032 -86.4375 -6.6875 C-85.60811291 -6.65009311 -84.77872581 -6.61268622 -83.92420578 -6.57414579 C-65.19723912 -5.70429571 -46.6718969 -3.92028344 -28.11607265 -1.27449608 C-18.68251476 0.03326239 -9.50641323 0.45886769 0 0 Z " fill="#FFFFFF" transform="translate(447,0)"/>
<path d="M0 0 C1.21710203 -0.00391162 1.21710203 -0.00391162 2.45879197 -0.00790226 C3.7805042 -0.00455618 3.7805042 -0.00455618 5.12891769 -0.0011425 C6.54652126 -0.00348249 6.54652126 -0.00348249 7.99276328 -0.00586975 C11.16501528 -0.00986247 14.33721952 -0.00669601 17.50947189 -0.00355339 C19.78582411 -0.00490881 22.0621761 -0.00668954 24.33852768 -0.00886345 C30.547486 -0.01343854 36.75642776 -0.01164328 42.96538639 -0.00848436 C49.53360982 -0.00594039 56.1018319 -0.00830587 62.67005539 -0.00987053 C74.48578139 -0.01201275 86.30150056 -0.00869449 98.11722538 -0.00361119 C108.65829706 0.00078606 119.19935749 0.00009758 129.74042892 -0.00452995 C190.42985872 -0.03048462 251.11295367 -0.0442516 311.79365158 1.12584114 C312.54417613 13.60735368 313.10794237 26.08330154 313.45164108 38.58299446 C313.61688162 44.39263142 313.83944901 50.18657969 314.20771408 55.98716927 C315.58861854 78.43822951 316.57633006 102.76713103 300.75458908 120.66490364 C292.02506966 129.74210268 282.109556 133.63700874 269.60708433 133.91697913 C260.65543651 133.94035689 251.74417954 133.24266635 242.83271408 132.46177864 C241.96735448 132.38682112 241.10199488 132.3118636 240.21041226 132.23463464 C232.94863133 131.59997902 225.69052501 130.92595772 218.43336213 130.24069178 C144.40069736 122.87707988 144.40069736 122.87707988 78.65632248 152.06340218 C64.34191861 163.99562405 51.46442943 177.26983943 39.10615158 191.18834114 C38.49915452 191.87023475 37.89215746 192.55212835 37.26676655 193.2546854 C23.63128846 208.60890463 10.55137623 224.37769501 -1.64591408 240.90229034 C-2.71322478 242.33897788 -2.71322478 242.33897788 -3.80209732 243.80468941 C-4.41623332 244.64406579 -5.03036932 245.48344217 -5.6631155 246.3482542 C-6.17238236 246.93485789 -6.68164923 247.52146158 -7.20634842 248.12584114 C-7.86634842 248.12584114 -8.52634842 248.12584114 -9.20634842 248.12584114 C-9.20634842 166.61584114 -9.20634842 85.10584114 -9.20634842 1.12584114 C-5.79474734 0.44352093 -3.34174998 0.00077872 0 0 Z " fill="#FFFFFF" transform="translate(384.20634841918945,341.87415885925293)"/>
<path d="M0 0 C11.75565471 0.78087559 23.50365559 1.30233429 35.27960646 1.65825784 C36.120351 1.68374202 36.96109554 1.7092262 37.82731719 1.73548263 C42.04935038 1.86216341 46.27149133 1.98472073 50.49370456 2.10523725 C84.98852366 3.09508243 119.41408272 4.7874707 153.85260451 6.98662698 C157.83019376 34.29518425 158.30278773 59.04152573 141.44012654 82.07400405 C134.48276025 91.08560437 126.92866911 99.37298204 118.91675949 107.43732905 C117.41873145 108.95188239 115.93505357 110.47938753 114.45375979 112.01029813 C80.26932135 147.18872935 46.90510088 160.16501755 -1.92048204 160.92499673 C-26.71707249 161.18361164 -51.41925824 160.15590813 -76.16156852 158.61312568 C-88.15851448 157.87341765 -100.1487324 157.37823294 -112.16350877 157.04033792 C-113.02050191 157.01616736 -113.87749504 156.9919968 -114.76045766 156.9670938 C-119.06377581 156.84694917 -123.36718888 156.73070771 -127.67066562 156.61639869 C-162.86599032 155.67657033 -198.00182863 154.07017207 -233.14739549 151.98662698 C-237.42013715 127.20465961 -237.02844797 105.75594008 -222.12806547 84.6469692 C-214.04994235 73.897667 -205.09971357 64.04142068 -195.66780469 54.47263667 C-194.07868749 52.85523898 -192.50216145 51.22634245 -190.92745459 49.59492171 C-135.83748431 -7.22706514 -74.71305377 -5.01920318 0 0 Z " fill="#FFFFFF" transform="translate(608.1473954916,131.0133730173111)"/>
</svg>
